<?xml version="1.0" standalone="no"?>
<!DOCTYPE svg PUBLIC "-//W3C//DTD SVG 20010904//EN"
 "http://www.w3.org/TR/2001/REC-SVG-20010904/DTD/svg10.dtd">
<svg version="1.0" xmlns="http://www.w3.org/2000/svg"
 width="50.000000pt" height="50.000000pt" viewBox="0 0 50.000000 50.000000"
 preserveAspectRatio="xMidYMid meet">

<g transform="translate(0.000000,50.000000) scale(0.100000,-0.100000)"
fill="#000000" stroke="none">
<path d="M60 284 l0 -174 37 0 c20 0 63 -7 95 -16 54 -15 62 -15 116 0 32 9
75 16 95 16 l37 0 0 174 0 174 -42 -5 c-24 -3 -67 -11 -96 -19 -45 -13 -59
-13 -105 0 -28 8 -71 16 -94 19 l-43 5 0 -174z m128 141 l52 -16 0 -158 0
-159 -47 14 c-25 8 -61 14 -80 14 l-33 0 0 160 0 160 28 0 c16 0 52 -7 80 -15z
m232 -145 l0 -160 -33 0 c-19 0 -55 -6 -80 -14 l-47 -14 0 159 0 158 48 15
c26 8 62 15 80 15 l32 1 0 -160z"/>
<path d="M20 240 l0 -170 52 0 c28 0 80 -7 115 -16 57 -14 69 -14 126 0 35 9
87 16 115 16 l52 0 0 170 c0 107 -4 170 -10 170 -6 0 -10 -62 -10 -165 l0
-165 -42 0 c-23 0 -70 -7 -105 -16 -57 -14 -69 -14 -126 0 -35 9 -82 16 -105
16 l-42 0 0 165 c0 103 -4 165 -10 165 -6 0 -10 -63 -10 -170z"/>
</g>
</svg>
